<svg id="svg" xmlns="http://www.w3.org/2000/svg" viewBox="0 0 1833.51 775.62"><defs><style>.cls-1{fill:#140505;fill-rule:evenodd;}</style></defs><g id="svgg"><path id="path0" class="cls-1" d="M805.46,119.37c-2.08.82-4.66,5.65-4.66,8.71,0,1.77,2.32,4.38,5.18,5.82l2.38,1.2-2.61.91c-2.5.88-2.6,1.07-2.2,4.23.23,1.82.51,9.78.63,17.69l.22,14.38-4,.55c-24.8,3.42-25.28,3.59-23,8.43,1,2.17,1.87,2.78,4.34,3.17s3.69,1.28,5.65,3.76l2.58,3.26.94,22.43c1.17,28,1.27,40.44.33,40.44a22.37,22.37,0,0,1-4.2-1.47A82.75,82.75,0,0,0,778.4,250c-10.67-2.83-12.18-5.28-6.77-10.93,2.36-2.46,2-2.88-2.77-3.65l-3.39-.54.23-10.86.23-10.86-2-.55-2-.54,2.12-.08c3-.12,3.08-.55,3.08-22.59v-20l-2.8-1.17c-2.52-1-2.79-1.46-2.71-4.15.09-2.9.12-2.92.61-.6.92,4.3,4.29,3.71,5.26-.93.45-2.1.26-2.61-1.11-3.05-1.66-.53-2.35-2.82-.85-2.82a.88.88,0,0,0,.8-.94c0-.51,1.17-1.92,2.6-3.11l2.6-2.17-3.6-3.26c-3.93-3.54-6.06-4.08-7.66-1.92-.85,1.16-1.22,1.22-2.08.35s-.82-1.18.34-1.83c1.58-.9,1.69-1.41.65-3.06-1.18-1.86-3.25.47-3.25,3.64v2.7l-4.2,0c-3.24,0-3.88-.21-2.8-.84,2.09-1.22,1.72-3.82-.71-4.93-1.91-.87-2.29-.74-4.2,1.49-2.46,2.89-25.21,10-27.49,8.58-.33-.21-.83.19-1.09.87a2.63,2.63,0,0,1-2.37,1.26c-6.6,0-4.42,7.67,3.68,12.93l5,3.28-.52,24.49c-.29,13.48-.53,28.24-.53,32.8v8.32l-5-.51c-2.75-.27-10-.85-16.2-1.28-26-1.8-30.11-2.45-29.84-4.65.2-1.64,1.24-2.36,6.24-4.31,10.6-4.13,12.89-9.92,6-15.1-3.07-2.3-3.41-2.82-2.2-3.29.79-.31,1.26-.6,1-.63s-5.07-1-10.77-2.06c-11.43-2.2-16.41-2.49-17.87-1-1.23,1.23-1.25,3.84,0,3.84.52,0,.66.27.32.6s-2.46.6-4.73.6c-3.43,0-4.1.23-4,1.39.13,1.62,0,1.67-1.92.67-1.49-.79-19.51-2.48-26.34-2.47-4.08,0-4.16,0-4.47-2.59l-.32-2.6-.13,2.6-.13,2.59-7.8,0a65.43,65.43,0,0,0-9.69.51c-1.59.43-1.81.27-1.41-1,.71-2.26-6.81-6.07-10.72-5.42-2.68.43-6.38,4.32-6.38,6.7,0,2.53-4.75.71-5.25-2-.61-3.25-2.75-2.53-2.75.91,0,1.07-.48,1.91-1.08,1.91a6.39,6.39,0,0,0-2.92,1.6c-1,.87-1.43,1.59-.92,1.59s.92.68.92,1.51c0,3.44.06,3.46,33.6,6.44,5.06.45,10.73,1,12.6,1.28l3.4.48v14.91l-3.8.57c-6.06.91-6.6,1.44-6.6,6.49,0,5.77.84,7.15,5.56,9.19S612,255,611,261.55s-1.56,7.2-5.91,7.2c-2.85,0-3.5.25-3.3,1.31.35,2-1.26,2.12-3.63.25-2.84-2.23-2.71-2.72,1.06-4,5.5-1.82,3.07-5.12-3.43-4.65-3.28.24-3.38.33-3.77,3.45-.3,2.39-.75,3.18-1.8,3.13-.77,0-4.46-.13-8.2-.2-5.21-.11-6.8-.39-6.8-1.25a1.89,1.89,0,0,0-1.2-1.57c-.83-.32-1.2.05-1.2,1.22,0,1.54-.31,1.64-3.71,1.17a64.16,64.16,0,0,0-7.2-.51c-2.78,0-3.5-.28-3.52-1.39,0-1.34-.06-1.34-.84,0-1.11,1.92-9.53,2.06-9.53.15,0-1.13-.17-1.13-1.78,0-3.94,2.76-19.25,1.57-20-1.55-.37-1.46-.41-1.44-.5.2-.1,2.06-1.53,2.19-14.33,1.28-5.72-.41-7.36-.79-7.63-1.8s-.36-.95-.44.23c-.1,1.67-8,1.45-11.28-.31a10.22,10.22,0,0,0-4-.8c-2.08,0-2.45-.31-2.45-2,0-1.09-.36-2-.8-2s-.8.54-.8,1.2c0,.83-.84,1.2-2.78,1.2-2.11,0-3.11.5-4.14,2.08-1.2,1.82-1.74,2-4.44,1.58s-3.15-.28-3.83,1.53c-.93,2.44-1.58,2.49-4.3.35-2.94-2.31-2.66-3,1.53-3.59,5.07-.76,4.83-3.4-.44-4.94-5-1.47-7.4-.38-7.05,3.19l.25,2.6-10.22.22c-10,.22-10.23.18-10.94-1.6l-.74-1.83,0,1.8c-.05,1.8-.05,1.8-14.72,1.8-8.07,0-19.59.24-25.6.53-12.17.58-15.34-.64-4.74-1.83l6.18-.69.92-5.6c1.14-6.88,1.17-6.83-3.71-6.25l-4,.47v-8.31c0-36.82,1.06-42,7-35.09,3.64,4.26,4.67,3.35,5.39-4.8l.56-6.31,2.92-.41a59,59,0,0,1,6-.43,21.18,21.18,0,0,0,4.39-.44c1.58-.51,7.52-9.81,6.62-10.36a11.1,11.1,0,0,1-1.71-3.64c-.59-1.78-1.46-3.24-1.94-3.25-1.44,0-32.25-2.36-41.67-3.16-13.74-1.18-28.7-2.38-29.8-2.41-1.5,0-1.21-2.41.3-2.41,1.06,0,1.11-.22.3-1.2-1.17-1.41-3.67-1.59-4.46-.31a1.13,1.13,0,0,0,.46,1.51c1.93,1.19.08,2.24-2.81,1.59-3.05-.69-6-.24-6,.9s-2.27.8-3-.48c-.5-.88-2.79-1.28-9-1.58-8.34-.4-12-2.13-7.25-3.38.92-.24,1.67-.71,1.67-1,0-.85-8.45-3.4-10.17-3.07s-2.46,3.86-.69,3.86c.81,0,1.26.71,1.26,2,0,1.94-.15,2-5.4,1.9-3-.05-4.75-.26-4-.46,1.12-.3,1.39-1,1.2-3.25-.31-3.74-2.09-4.35-2.76-1l-.52,2.57-7.28-.49c-4-.28-10-.72-13.28-1l-6-.5-3.75,4.64c-4.36,5.4-4.46,4.88,2.88,14.74a63.09,63.09,0,0,1,4.47,6.43c0,.25,1.24.3,2.76.12l2.76-.32-.34,5.48c-.18,3-.72,12.51-1.18,21.08s-1.25,21.27-1.73,28.19c-.7,10-.67,12.85.12,13.8,1.19,1.44-1.29,1.53-17.75.69l-10.16-.52-.3-4.08-.28-4.07-.15,4.2-.15,4.2h-4c-3.86,0-4-.06-4.27-2.6s-.33-2.56-.45.39a12.15,12.15,0,0,1-.33,3c-.11,0-22.22.35-49.14.74-33.09.47-49.47,1-50.6,1.59-3.81,2.05-2.36,4,15.34,20.94,18.49,17.67,18.34,17.49,15.77,17.49-2.17,0-9.33,3.82-9.89,5.28-.22.59.57,1.85,1.76,2.81L165.2,313l-12-.5q-15.94-.5-32-.93-25.73-.68-51.2-1.2l3.2,14.41,37.2,2,37.2,2c7.48.42,24.4,1.34,37.6,2s29.76,1.58,36.8,2,24.14,1.29,38,2,27.15,1.55,29.53,1.93c4.31.69,4.32.69,2.4-.77-2.5-1.9-1.76-3.13,4.5-7.52l4.74-3.33,1-6.25c1-5.65.92-6.39-.31-7.74-2.07-2.29-.93-2.6,6.63-1.82l7,.73-.35,14c-.18,7.7-.34,20.3-.34,28v14l4.07.23c5.66.33,5.58.57,7.14-21,2.23-31,2.47-33.95,2.84-34.22.19-.14,4.13-1.2,8.75-2.36,9.11-2.29,8.23-2.29,34.8.15,4.84.45,15.46,1.37,23.6,2s18.58,1.57,23.2,2,15.06,1.33,23.2,2,18.58,1.57,23.2,2,15.16,1.3,23.42,2c23.56,1.86,28.35,2.86,18.6,3.86-9.91,1-7.83,4.58,5.82,10,5.59,2.21,18.26,7.26,28.16,11.22s18.63,7.41,19.4,7.67c2.18.73,2.1,38.36-.1,41.22-1.43,1.86-1.41,2,.93,7.6,2.77,6.64,3.1,6.92,7.35,6.48,1.77-.18,7.36-.73,12.42-1.2s12.1-1.21,15.65-1.63c10.26-1.23,11.55-.71,11.55,4.61,0,4,1.7,6.05,2.15,2.57.08-.62.35-2.42.61-4l.46-2.86,16-4.34,16-4.34.22-14.71c.18-12.06.44-14.84,1.42-15.42,13.85-8.12,25.55-14.23,27.86-14.57,1.62-.23,6.18-.83,10.14-1.33s9.16-1.25,11.55-1.64c6.89-1.15,7.25-1.06,7.25,1.77s1.89,2.05,2.73-1.33,4.23-2.55,13,2.89c6.67,4.13,21.38,13.32,39.61,24.74,4.29,2.68,4.48,2.95,4.88,6.8a95.23,95.23,0,0,0,2.55,11.6c1.17,4.19,3,10.93,4,15a61.92,61.92,0,0,0,3.09,9.6,53.9,53.9,0,0,1,2.78,9l1.58,6.81.07-5.74c.1-8.43-.05-8.27,7.6-8.27,6.56,0,8.62.7,9.51,3.21.28.75.46.51.5-.66,0-1.33.46-1.78,1.46-1.6,2.48.48,2.1,3.46-.76,5.87l-2.64,2.21-.27,9.2c-.29,9.67.24,11.29,3.17,9.72,2.24-1.2,2.3-1.05,2.3,5.59,0,3.48.35,6.45.78,6.6s1,24.91,1.24,67.86c.51,75.08.49,74.62,3,74.26l1.74-.25.19-42.81c.17-40.19.45-48.82,1.57-47.69.26.25.39,10.72.3,23.28-.11,15.71.1,22.82.69,22.82s.85-7.77.85-24.7c0-29.17,0-29.42,3.47-29.54L814,504l.09,11.88c.11,14.25.45,16.06,3,16.06s2.85-1.28,2.87-20.14V495.27l2.2-.48,2.2-.48-.26-15.38c-.28-16.62-.6-14.45,5.07-33.78,1-3.53,2.51-8.57,3.27-11.21,1.8-6.25,2.29-6.79,6.22-6.82,3.26,0,6.1-1.4,6.1-2.95s3.43-9,4.17-9c.41,0,0-.95-.91-2.11-2.07-2.63-2-41,0-43.05.29-.28,9.68,1.18,17.5,2.71,2,.39,5.94,1.1,8.8,1.58s6.64,1.21,8.4,1.63,6.44,1.34,10.4,2,10.62,2,14.8,2.79,13.72,2.63,21.2,4,17,3.17,21.2,4,10.84,2.09,14.8,2.8,8.64,1.61,10.4,2,6.44,1.31,10.4,2c7.52,1.36,10.76,2,30.2,5.69l11.8,2.25v23.79c0,23.26,0,23.8,1.66,24.67,3.6,1.93,3.93.89,4-12.61,0-6.94.32-13.46.6-14.48l.52-1.86,3.34,2.42a20.86,20.86,0,0,1,4,3.54c1.28,2.17,16.09,3.19,19.11,1.33,2.39-1.48,2.87-1.51,8-.44,3,.62,7.66,1.54,10.3,2s6.42,1.26,8.4,1.69,12.6,2.55,23.6,4.69c34.62,6.76,65.76,12.86,84.4,16.52,9.9,1.95,20.88,4.08,24.4,4.75s7.84,1.54,9.6,2,9.14,1.87,16.4,3.22,14.64,2.79,16.4,3.21,6.26,1.34,10,2,11.3,2.15,16.8,3.22,12,2.33,14.4,2.78,6,1.19,8,1.62,12.6,2.54,23.6,4.69c34.62,6.76,65.76,12.85,84.4,16.52,9.9,1.95,20.88,4.09,24.4,4.76s8,1.58,10,2,9.9,2,17.6,3.55c12,2.34,20.92,4.19,36.4,7.54,1.76.38,5.9,1.24,9.2,1.92,7.88,1.6,61.55,13.2,69.2,14.94,1.76.41,9.5,2.06,17.2,3.67,18.61,3.91,20.15,5.12,8.41,6.64s-19.77,2.43-26.22,3c-5.72.47-6.32.68-7.55,2.76s-1.9,2.31-6.58,2.74c-2.9.26-6.74.65-8.55.88-3,.37-3.36.23-4.26-2-1.72-4.15-5.16-3.74-5.77.69l-.28,2-22,.17-22,.16-1.17,1.94c-1.36,2.24-5.88,2.9-20.13,2.95-4.62,0-15.24.57-23.6,1.22-13.71,1.07-19.18,1.71-36.4,4.26l-11.09,1.65c-7.12,1.06-7.31,1.16-7.31,4v2.24l8.2.51c4.51.28,17.38,1.06,28.6,1.71s26,1.56,32.8,2c34.79,2.28,54.82,3.34,70.46,3.74l17.27.44,3.53,4.31c2.9,3.52,3.58,4,3.8,2.7.29-1.85,3.23-2,12.54-.79,3.08.4,8.48,1.13,12,1.61s10.9,1.41,16.4,2.08,12.34,1.52,15.2,1.9,8.44,1.09,12.4,1.57,7.65,1,8.2,1.22c.72.27,1,2.85,1,9.14,0,11.4,0,11.44,9.87,10.87,4-.24,15.42-.79,25.32-1.23s20.33-1,23.2-1.27l5.23-.49,1.39-4.17c1.12-3.36,1.39-7.06,1.39-19.1,0-15.18.32-16.69,3-14a13.08,13.08,0,0,0,2.71,1.8c2.36,1.19,2.54,1.88,10.7,42.9,1.1,5.51,2.39,10.68,2.88,11.51.58,1,.61,1.68.08,2-1.37.85-2.18,19.28-.85,19.3,2.87,0,3.32,1.19,2.25,5.93a20.16,20.16,0,0,0-.09,9.5c.51,2.73,1.15,6.31,1.43,8,1,6.18,2.72,3.57,2.72-4.2,0-6.45.16-7.2,1.47-7.2s1.52,2,2.53,34c.87,27.61,1.28,34,2.16,34s1.05-6.72.86-40.2c-.21-38.1,0-45.33,2.28-64.39.47-4.08,1.29-4.3,2.84-.8.63,1.43,1,2.06.81,1.4-1.56-5.49-1.15-8.68,1.15-8.94,3.12-.36,3.9-8.88,1.14-12.4-3.09-3.93-2.34-4.86,4.25-5.19,8.41-.42,8.51-.56,8.51-12,0-5.87.31-9.5.81-9.5s2.92-1.44,5.5-3.2c6.11-4.18,8-4.15,11.4.2,1.46,1.86,2.84,3.57,3.07,3.79,5.49,5.22,8.62,10.31,9,14.61.49,5.87-.27,5.44,11.2,6.3,5.42.41,13.45,1.08,17.85,1.48,5.26.49,8.27.47,8.79-.06.82-.81,2.61-18.11,2.74-26.44l.07-4.53,4.76-.55c5.68-.66,6.44-.3,6.45,3,0,8.29,4.92,9,5.59.85l.4-4.9,14.8,3,28,5.8,1.91-20-2.46-2.87L1899,554l-1.78,2.24-1.79,2.24-5.9-1.25c-16.56-3.5-19.67-5-13.61-6.51,4.26-1.07,4.74-1.74,2.11-2.94-1.88-.86-2.33-.81-3.21.4s-1.7,1.32-7.18.64c-6-.74-9.54-1.93-4.78-1.58,7,.51,8.63,0,11.64-4l2.88-3.79-2.91-3.37c-3.1-3.61-4-3.91-20-6.94-3.3-.62-7.17-1.38-8.6-1.68l-2.6-.55V494.35c0-17.94-.23-33.73-.5-35.1-.49-2.48-.46-2.51,2.77-2.51,3.78,0,5.85-2.23,3.71-4-1.67-1.39-1.46-3.19.37-3.19,2.49,0,2.64-1.33.35-3.13-2.68-2.11-4.3-2.12-4.3,0,0,1.45-.35,1.58-3,1.15-7.38-1.21-7.49-1.25-7-2.85.37-1.15,0-1.74-1.63-2.34-2.42-.92-3.59-.47-3.59,1.36,0,1.28-3.19,1.23-15.25-.25-2.75-.33-3.9-.13-4.7.83a3.48,3.48,0,0,1-2.17,1.27c-1.86,0-2.18,2.36-.58,4.23,1.89,2.22,1.6,56.53-.3,57.17-.65.21-1-.5-1-2.05,0-1.77-.36-2.35-1.4-2.26s-1.5-.57-1.68-1.89c-.37-2.65-1-3-7.46-3.62s-6.5-.86-6.1-9.19l.24-5.15,2.94-.82c4-1.11,7.71-6.29,5.87-8.13a4,4,0,0,1-1.21-2.26c0-2.07-7.33-2.44-8.95-.45a3.58,3.58,0,0,1-3.23,1.47c-2.42-.34-2.44-2.72,0-2.46,1.83.19,2.25-.88,1.31-3.33-.61-1.61-2.51-1.6-6.39,0-3.07,1.29-2.42,3.52,1,3.52a1.19,1.19,0,0,1,1.05,1.3c0,1.17-1.33,1.24-13.49.72l-13.48-.57-.51,1.87a98.38,98.38,0,0,0-.51,12c0,5.89-.35,10.36-.81,10.64s-.79-6.58-.77-20.15c0-23,.11-23.44,5-23.44,4,0,5.44-2.54,3-5.13-2.07-2.21-2.13-3.18-.16-2.66,3.87,1,3.94-2.62.09-4.61-2.4-1.25-3.2-.91-3.2,1.33,0,1.69-.35,1.71-6.8.36-3.89-.82-4.85-1.34-5-2.71a3,3,0,0,0-1.86-2.22c-2.07-.66-3.09.32-1.35,1.3a5.51,5.51,0,0,1,1.88,3.24c.32,1.43,1.17,2.65,2,2.87a3.2,3.2,0,0,1,2,1.7c.4,1.06.3,1.13-.5.32-2.65-2.63-2.87-1.25-3.58,22.8-.69,22.93-.77,23.81-2.31,24-4,.51-4,.42-4.23-26.73-.26-28.17-.12-27.46-5.67-27.51a48.93,48.93,0,0,1-7.28-.73c-2.87-.55-4.15-.39-6.5.81-1.6.82-3.15,1.26-3.42,1s-.5,4.42-.5,10.43v10.93h-2.71c-2,0-2.81-.39-3.12-1.59-.53-2-2.19-2.09-2.71-.11-.3,1.17-1.44,1.6-5.33,2-2.71.28-7.63.87-10.93,1.31l-11,1.44c-6.11.79-5.49-1-5,14.15.56,18,1.26,17.49-15.29,11.27-6.66-2.5-13.53-4.54-16.31-4.83s-6.38-.72-8.32-1c-3.48-.48-3.5-.46-3.09,1.71l.42,2.19-4.51-.54c-2.47-.3-5.31-.73-6.3-1-2.47-.59-2.32-2.65.2-2.65,1.1,0,2,.36,2,.8s.5.54,1.4.06a21.75,21.75,0,0,1,3-1.26c2.27-.74-2-4.42-5-4.38-3.47.05-7.4,5.75-6.42,9.31.77,2.79.29,4.63-1,3.83a3.89,3.89,0,0,1-.84-2.61c-.1-2.13-.11-2.13-.61.25l-.51,2.4-7.19.46c-8.07.52-8.62.4-6.19-1.3,1.13-.79,1.55-1.68,1.21-2.59-1.26-3.42-5.23-3.52-6.9-.17-1.16,2.33-1.15,2.4.74,2.4,1.1,0,1.94.47,1.94,1.08,0,1.7-12.79,3-12.83,1.35,0-1-.17-1-.84.17s-1.86,1.41-4.57,1.43c-8.83.09-14.14,1.73-14.4,4.44-.23,2.33,2.43,5.42,5.84,6.8.44.18,5.06,3.14,10.27,6.58s10.34,6.64,11.41,7.13l1.95.89-1.73,1.83c-1,1-2,1.66-2.41,1.43a27,27,0,0,0-4.88-1.13c-12-2-34.53-6.34-47.81-9.11l-23.6-4.92c-7.48-1.56-16.3-3.34-19.6-4s-12.12-2.43-19.6-4-16.3-3.4-19.6-4-7.62-1.51-9.6-2-6.3-1.32-9.6-1.95-12.12-2.45-19.6-4-16.12-3.37-19.2-4c-6.66-1.27-20.55-4.12-39.2-8.06-7.48-1.57-16.3-3.37-19.6-4s-12.12-2.42-19.6-4-16.3-3.38-19.6-4-7.44-1.51-9.2-1.91-5.36-1.13-8-1.64-7.5-1.48-10.8-2.16c-29.53-6.08-38.17-7.86-50-10.26-7.48-1.52-22.42-4.59-33.2-6.82s-26.44-5.45-34.8-7.15c-44.77-9.09-41.7-8.32-39.4-10,1.84-1.34,1.77-3.06-.2-4.84-1.82-1.65-2.07-2.8-.6-2.81,1.08,0,19-9.75,37-20.14,2.2-1.27,5.17-2.9,6.6-3.63,5.66-2.87,3.39-6.4-5.3-8.25-7.86-1.67-7.29-1.26-7.42-5.39l-.12-3.79-.48,3.6c-.29,2.16-.73,3.22-1.1,2.64a1.54,1.54,0,0,0-1.77-.53,2.74,2.74,0,0,1-2.17-.21,5.53,5.53,0,0,0-1.84-.75l-1.8-.22c-.55-.07-1-1.11-1-2.32,0-2-.12-2.08-1.09-.8-1.31,1.73-2.06,1.73-7.38.06-5-1.59-5.06-1.64-5.67-11.68-.26-4.31-.78-8-1.15-8.26-1.21-.74-.72-1.93.8-1.93,2.69,0,4.12,2.6,4.12,7.47,0,2.49.35,4.53.77,4.53s6,.75,12.38,1.66c16.09,2.28,16.78.51,1.74-4.4-.84-.27-1.32-.69-1.08-.93s3.41.48,7,1.6,6.25,1.67,5.81,1.22a16,16,0,0,0-4.74-1.78c-5.13-1.26-6.43-6.32-2-7.85,2.38-.83,2.39-.87.92-2.45-2.83-3.05-4.48-1.65-4.17,3.55s.61,5.17-7.23,3c-6.51-1.81-7.72-2.62-6.37-4.26,2.13-2.56-1.24-3.49-16.27-4.48-7.92-.53-16.11-1.17-18.2-1.42l-3.8-.46-.14-3.7c-.13-3.63-.14-3.64-.45-.6s-.33,3.1-3.27,2.61a38.76,38.76,0,0,0-4.74-.5c-1.56,0-1.82-.45-1.93-3.4s-.17-3.06-.45-.81c-.37,3-1.45,3.22-8.16,1.67-3.75-.87-4.07-1.12-4.18-3.4s-.12-2.42-.45-.26c-.43,2.84-1.72,2.81-9.09-.23-4-1.65-6.59-2.27-8.09-1.94a11.23,11.23,0,0,1-4.83-.33c-1.44-.44-6.4-1.65-11-2.69-8.08-1.81-8.41-2-8.9-4.24l-.51-2.38-.09,2.21c-.1,2.18-1.88,3-2.9,1.39a3.83,3.83,0,0,0-2.65-.83c-6.81-.11-9.38-1.68-20.35-12.42-5.83-5.71-12.4-12-14.6-14l-4-3.58-.53-17.6c-.3-9.69-1-22.46-1.46-28.41s-1.17-14.9-1.47-19.92l-.54-9.13L967.23,227c-5.57-1.89-7.23-3.43-1.84-1.71,4.42,1.42,12.1.17,12.85-2.09.4-1.18-5.43-.51-8.19.94-1.27.66-1.94.37-3.72-1.63l-2.18-2.43L962.33,222a6.66,6.66,0,0,1-2.47,1.93c-1.22,0-.68-2.3.74-3.14,2.07-1.22-.11-2.43-4.4-2.44-2.84,0-3.4.24-3.4,1.54,0,2.41-.74,2.47-10.07.9-4.8-.82-11.43-1.87-14.73-2.35s-9.76-1.45-14.35-2.16-9.9-1.32-11.8-1.35-3.45-.35-3.45-.72,1.66-.67,3.7-.67c3.12,0,3.55-.18,2.74-1.15a10,10,0,0,1-1.49-3.19l-.55-2-4.06,1.88q-13.92,6.45,3.48,15.2c10,5,11.2,6.14,11.88,11.08l.5,3.69-2.7.26-2.7.25v8.4c0,4.63.48,14.35,1.06,21.6s1.25,15.79,1.49,18.94l.44,5.73-4.7.52c-16.56,1.88-17.45,4.58-3.94,12,8.15,4.46,8.44,4.71,8.44,7.33,0,2.91-1.2,3.47-3.88,1.8-1.2-.75-2.39-.4-6.59,1.93-5,2.81-5.2,2.84-9.13,1.83-6.08-1.56-5.94-5.21.2-5.24,1.43,0,2.6-.37,2.6-.81s-.49-.81-1.1-.81a3.28,3.28,0,0,1-2.1-1.2c-2.35-2.82-5.79-1.5-5.2,2,.82,4.85-3.19,4.9-19.52.25L863,312.56l.33-76.11.32-76.11,5.4-3.05c4.81-2.73,7.43-6.14,4.71-6.14-1.07,0-8.91-6.43-8.91-7.31,0-.42.63-.66,1.4-.53,2.31.39,2.2-2.93-.16-4.79-2.64-2.08-2.68-2,1.81-4.11,6.91-3.23,7.27-7.25.65-7.28-3.46,0-5.62-.88-5.17-2.07.15-.38-1.59-1-3.86-1.35-3.44-.56-4.2-1-4.61-2.62-.63-2.5-3.66-2.73-3.66-.27,0,1.48-.33,1.61-3,1.16-3.52-.6-9,1.34-9,3.18s-1.28,1.44-2.93-.78l-1.47-2-8.8.91c-13.13,1.36-14.31,1.31-14.67-.57-.31-1.66-2.42-4.47-3.25-4.32-.26,0-1.44.47-2.62.94M713.6,148.25c0,2,2.07,3.07,3.24,1.64.88-1,.87-1.39-.09-2-1.69-1.07-3.15-.91-3.15.35M676,206.37c0,.45-1.07,1-2.39,1.29s-2.19.79-2,1.18c.51.82-1.26.89-5.42.2l-3-.49,1.77-1.48c1.94-1.62,11-2.21,11-.7m405.08,132.38c0,3.51.14,4.86.31,3a39.13,39.13,0,0,0,0-6.41c-.17-1.63-.31-.09-.3,3.43M647.67,609.81c-.26,1.28-.47,10.48-.46,20.44s-.36,31.23-.81,47.29-1,42.44-1.3,58.61-.81,29.4-1.19,29.4-.71-2.86-.71-6.35c0-6.37-.91-10.45-2.32-10.45-1.22,0-1.55,3.27-2.6,25.7l-1,21.29-21.59.71c-28.89.93-29.85,2.27-2.2,3.08,19.55.57,20,.63,21.73,2.46l1.76,1.87-4.1,3.85-4.09,3.84.83,8c.47,4.39,1.19,11.23,1.6,15.19s1.3,13,2,20,1.56,16.22,2,20.4,1,10,1.31,12.83c.38,4.07.78,5.23,1.79,5.25.71,0,3.28.28,5.7.58,5.48.68,6.5,0,6.85-4.36.15-1.93.67-8.9,1.14-15.5,2.28-32.07,2.35-32.54,5.06-35.4s3.75-3.24,3.75-1.31c0,1.07.6,1.2,3.46.77,4.39-.66,8,1,8.54,4a3.84,3.84,0,0,0,2.11,2.76c1.36.49,1.65.35,1.44-.71-.15-.79,1-2.46,2.91-4.06,3.52-3,5.27-2.8,2.39.27l-1.83,1.94,4.69-1.93c6.49-2.67,7.83-2.55,9.44.84,1.33,2.79,4.46,3.91,5.65,2,.27-.45-.05-.58-.76-.31-2.32.89-1.25-1.08,2.42-4.47s5.14-3.82,3.63-1c-.75,1.42-.5,1.61,2.54,2,6.49.94,9.37,2.1,9.37,3.76a1.41,1.41,0,0,0,1.6,1.57c.88,0,1.6-.5,1.6-1.11,0-1.22,5.93-6.89,7.2-6.89s1,.86-.4,2.4c-.89,1-.94,1.35-.2,1.4,1.14.08,32.73,1.25,79.25,2.93,32.5,1.17,33.55,1.31,34.55,4.46.48,1.53,2.15,2,14.8,4.4,9.5,1.79,9.61,1.84,10.88,4.88.91,2.17,1.59,2.72,3.33,2.7,2,0,2-.12.71-.88s-1.29-1,1.16-3.58c2.94-3,4.27-3.48,3.55-1.2-.47,1.46.07,1.5,14.68,1.08l15.16-.43.26,2.32c.23,1.91.69,2.36,2.67,2.58,2.16.23,2.26.14,1-.82s-1.2-1.29,1.8-4.22,3.23-3,3.23-1.39c0,2,.68,2.12,6.54.83,6.14-1.36,6.05-1.17,6.59-12.5.27-5.59.9-16.57,1.41-24.4,1.07-16.69,1.76-15.24-8.68-18.18-6.33-1.78-7.81-2.47-7.61-3.58.15-.81-.09-1.15-.61-.83-1.14.71-9.78-1.1-9.26-1.94s-8.36-1.51-32.87-2.44c-11.05-.42-20.59-.94-21.2-1.15-1.18-.41-9.37-1.37-27.51-3.24-6.16-.63-13.12-1.39-15.47-1.7-4.09-.52-4.26-.47-4,1.22.29,1.88-20.27,11.46-21.57,10.06-.31-.33-.07-.78.54-1a9.31,9.31,0,0,0,2.6-1.88,5.16,5.16,0,0,1,2.22-1.5c2.17,0,7.33-3.8,5.73-4.22-1.77-.46-2.22-2.9-.8-4.31.6-.6-.11-1-2.4-1.37-3.48-.56-4-1.3-2-2.93,2.26-1.89-.44-2.35-13.64-2.35-17.12,0-16.4-.28-16.41,6.27,0,5.94-.15,6.26-3.79,8.8-1.43,1-2.6,2.19-2.6,2.66s.46.47,1.2-.15a1.57,1.57,0,0,1,2.2-.2c.55.44,5.81,1.06,11.69,1.38,13.63.73,17.71,2.74,17.71,8.74,0,2.35,0,2.36,8.67-1.63a47.56,47.56,0,0,1,6.65-2.69c.43,0,.55-.36.28-.8s-2.87-.81-5.78-.81c-6.94,0-5.89-.78,4-3,15.35-3.47,20.18-3.17,11.54.71l-4.2,1.89,5.12.26c2.87.15,5.49-.11,6-.58,1.11-1.11,8.88-1,17.32.31l6.8,1-7.6.16c-13.62.28-5,1.67,11.91,1.93,8.63.13,13.62.11,11.09-.05s-4.6-.67-4.6-1.11c0-.81,59.77-.3,65.4.56,1.55.24,2.6.87,2.6,1.55,0,1.27-8,1.11-25.92-.51-6.47-.58-9-.54-9.6.14s-.45.8.81.42a2.44,2.44,0,0,1,2.69.71c.8,1,3.09,1.24,10.72,1.31,5.34,0,12,.32,14.72.6l5,.51,3.17,6.8c4.5,9.68,5,9.14-7,8.49-5.61-.3-35-1.1-65.4-1.77L762.93,816c-17.1-.38-28.08-.94-28.41-1.43s-5.38-1-11.32-1.34c-44-2.18-39-1.28-42.48-7.61-1.54-2.8-3.4-5-4.64-5.56-1.66-.71-.71-.81,4.72-.47,9.15.56,9.64.75,9.11,3.38-.33,1.63.07,2.64,1.63,4.1s2.06,1.67,2.06.64a2.31,2.31,0,0,0-.8-1.79,2,2,0,0,1-.8-1.53c0-1.18.82-1.1,11.6,1.15,25.65,5.33,24.72,5.27,25,1.58.18-1.9,1.17-3.73,3.09-5.72l2.84-2.92-5.89-.43c-23.91-1.73-30.38-2.13-33.89-2.14-9.71,0-13.95-2.31-4.6-2.49l5.4-.11-6.8-.7c-8.31-.85-8.8-1-8.8-3.06,0-1.42-.51-1.63-4.06-1.63h-4.06l.23,2.72c.31,3.62-1.22,5.29-4.88,5.29-4.06,0-4.22-.41-1.86-4.68,3-5.43,3-5.47,8.46-6.45,16.95-3.07,20.33-2.9,20.76,1,.25,2.21.38,2.32,1,.92a28.62,28.62,0,0,1,2.15-3.71c1.27-1.82,1.3-2.18.28-2.57s-1.2-2.18-1.2-9.09c0-13.57-1-31.86-1.64-30.13-.32.86-.84,8.41-1.17,16.76l-.58,15.19-6.4,2.38c-7.57,2.81-11.24,3.08-11.67.86-.24-1.19,0-1.4,1.18-.95s1.3.38.43-.49c-.65-.65-3.05-1-6.39-1H665.2l-.51-20c-.27-11-.93-47.54-1.44-81.21-1.08-69.79-.13-63.14-9.2-64.44l-5.92-.84-.46,2.35M784,797.54c0,.45-.72.81-1.6.81s-1.6-.36-1.6-.81.72-.79,1.6-.79,1.6.36,1.6.79m63,1.36a6.61,6.61,0,0,1-2.8,0c-.77-.2-.14-.37,1.4-.37s2.17.17,1.4.37" transform="translate(-70 -118.43)"/></g></svg>